<?xml version="1.0" standalone="no"?>
<!DOCTYPE svg PUBLIC "-//W3C//DTD SVG 20010904//EN"
 "http://www.w3.org/TR/2001/REC-SVG-20010904/DTD/svg10.dtd">
<svg version="1.0" xmlns="http://www.w3.org/2000/svg"
 width="512.000000pt" height="512.000000pt" viewBox="0 0 512.000000 512.000000"
 preserveAspectRatio="xMidYMid meet">

<g transform="translate(0.000000,512.000000) scale(0.100000,-0.100000)"
fill="#000000" stroke="none">
<path d="M1443 4700 c-123 -13 -224 -35 -467 -101 -265 -73 -403 -105 -493
-114 -37 -4 -75 -9 -84 -11 -9 -3 -44 -60 -77 -127 -73 -149 -118 -197 -185
-197 -69 0 -71 -4 -68 -132 20 -1163 58 -2052 112 -2633 17 -188 21 -212 40
-227 12 -10 30 -16 43 -13 50 12 805 90 810 84 6 -6 26 -376 26 -468 l0 -85
48 -45 c63 -61 171 -151 181 -151 5 0 14 7 21 15 10 11 10 32 1 92 -13 95 -28
305 -37 514 l-7 156 174 16 c95 9 175 14 178 11 3 -3 6 -166 6 -362 l0 -357
25 -3 c23 -3 30 5 60 68 19 38 36 70 39 70 3 0 42 -62 86 -136 83 -141 107
-167 131 -142 12 12 13 76 4 418 -5 223 -10 517 -10 653 l0 249 103 -7 c113
-7 255 -28 359 -51 65 -15 68 -17 68 -45 0 -34 3 -34 -102 -9 -46 10 -134 24
-196 30 -128 13 -142 9 -142 -44 0 -67 31 -251 45 -265 11 -12 38 -12 173 -1
104 9 228 11 353 7 213 -7 666 -50 681 -65 5 -5 11 -122 15 -261 5 -222 8
-253 23 -261 27 -14 57 14 75 73 34 104 56 116 139 75 39 -19 47 -20 62 -7 16
13 17 41 10 377 -5 291 -4 362 6 362 7 0 72 -15 143 -33 114 -29 130 -36 133
-55 4 -27 -11 -28 -88 -7 -88 24 -100 21 -100 -20 0 -66 32 -250 46 -266 9
-10 39 -19 76 -23 34 -3 64 -8 66 -11 3 -2 7 -28 9 -57 11 -142 45 -485 49
-500 8 -26 46 -34 59 -13 5 10 43 70 84 134 129 202 121 183 114 287 -3 51 -3
98 0 106 4 13 41 10 249 -14 363 -42 382 -43 395 -27 18 22 58 468 83 919 21
387 29 653 62 1965 1 45 -2 86 -6 93 -4 7 -25 12 -46 12 -79 0 -109 32 -205
215 -65 126 -64 125 -181 135 -140 13 -251 37 -434 97 -204 66 -546 127 -594
105 -15 -6 -34 -37 -55 -88 -18 -44 -36 -82 -40 -86 -4 -4 -29 30 -56 77 -28
46 -59 88 -70 93 -43 19 -289 -24 -425 -75 -95 -36 -229 -105 -315 -163 l-75
-51 -58 39 c-185 125 -425 217 -657 251 -105 15 -299 21 -392 11z m458 -109
c48 -11 122 -32 165 -46 86 -29 326 -142 424 -199 34 -20 64 -36 68 -36 5 0
44 23 87 51 180 114 366 192 545 229 151 31 138 36 216 -87 38 -60 73 -111 79
-115 23 -18 39 2 84 106 26 59 54 112 62 116 32 18 226 -22 534 -111 181 -52
321 -83 423 -94 l63 -7 -5 -97 c-4 -53 -13 -226 -22 -386 -36 -703 -83 -1306
-150 -1957 -10 -93 -21 -168 -25 -168 -25 0 -350 105 -547 176 -129 47 -277
96 -331 109 -241 61 -474 54 -860 -26 -126 -26 -172 -24 -306 11 -210 54 -285
64 -485 64 -231 0 -309 -15 -615 -120 -394 -135 -600 -203 -630 -206 l-30 -3
-22 210 c-67 635 -133 1506 -158 2090 -3 77 -8 175 -11 218 l-6 77 37 0 c21 0
160 34 309 75 285 78 451 117 601 140 127 20 392 13 506 -14z m-1513 -583 c27
-569 86 -1321 152 -1948 27 -250 26 -275 -11 -370 -28 -74 -49 -107 -49 -79 0
57 -101 1686 -136 2199 l-26 375 23 43 c13 23 26 42 29 42 3 0 11 -118 18
-262z m4387 216 l27 -45 -16 -202 c-32 -421 -59 -848 -111 -1757 -20 -343 -38
-626 -39 -627 -2 -2 -18 29 -36 69 -22 46 -35 93 -38 128 -2 30 12 215 32 410
61 606 104 1163 133 1731 10 187 18 339 19 339 1 0 14 -21 29 -46z m-4486
-469 c7 -104 27 -415 46 -690 57 -823 83 -1267 86 -1474 1 -98 0 -104 -24
-128 l-25 -26 -6 54 c-7 61 -55 768 -86 1254 -22 362 -45 762 -60 1098 l-11
227 28 24 28 24 7 -86 c3 -48 11 -172 17 -277z m4600 331 l22 -23 -11 -229
c-27 -585 -57 -1095 -105 -1794 -36 -512 -42 -590 -50 -598 -4 -4 -16 4 -28
18 -21 25 -22 30 -15 205 11 280 34 666 88 1485 27 415 52 801 56 858 3 56 10
102 13 102 4 0 18 -11 30 -24z m-2690 -2062 c47 -8 121 -24 164 -35 64 -18 82
-27 107 -57 17 -20 30 -40 30 -44 0 -3 -26 4 -58 17 -143 58 -354 91 -507 80
-211 -15 -392 -57 -765 -175 -209 -66 -561 -163 -568 -155 -2 1 0 14 3 27 6
22 14 25 88 36 110 16 239 57 492 157 277 110 406 146 587 165 106 11 316 3
427 -16z m1293 -14 c136 -26 210 -50 488 -160 198 -77 353 -125 471 -144 37
-6 78 -40 65 -53 -11 -11 -274 58 -542 143 -431 136 -658 184 -862 184 -143
-1 -291 -27 -414 -76 -34 -13 -63 -22 -65 -21 -1 2 13 22 31 44 31 35 44 42
123 61 83 20 173 36 253 46 86 10 349 -3 452 -24z m-1309 -105 c105 -16 219
-50 298 -90 40 -21 49 -30 49 -51 0 -23 -3 -26 -27 -20 -214 45 -260 50 -478
50 -233 0 -337 -12 -585 -68 -58 -14 -106 -23 -107 -22 -2 2 19 89 22 94 5 6
214 61 311 82 196 41 357 49 517 25z m1085 -1 l52 -7 0 -56 0 -57 -166 4
c-175 5 -327 -8 -462 -37 l-82 -18 0 32 c0 31 3 34 78 63 103 41 141 52 226
67 77 14 269 19 354 9z m602 -145 c290 -89 423 -126 535 -149 127 -26 155 -38
186 -81 l23 -32 -45 7 c-83 13 -274 57 -499 116 -124 33 -264 69 -312 81 l-88
21 0 50 c0 42 2 49 18 44 9 -3 91 -29 182 -57z m-605 -38 c58 -6 60 -7 63 -36
l3 -31 -228 1 c-223 0 -317 -8 -440 -40 l-53 -13 0 33 c0 32 0 32 78 48 74 16
178 32 252 40 59 6 262 5 325 -2z m-2213 -56 c4 -33 2 -36 -31 -45 -155 -44
-501 -121 -510 -114 -9 7 41 62 71 77 18 9 80 25 138 37 58 11 150 33 205 49
55 16 105 30 111 30 7 1 14 -15 16 -34z m574 0 c4 -14 5 -27 3 -29 -2 -1 -62
-12 -134 -25 -71 -12 -140 -24 -152 -27 -19 -5 -23 -2 -23 19 0 24 6 27 123
55 157 39 175 39 183 7z m-568 -132 c-3 -26 -9 -29 -143 -65 -77 -21 -183 -47
-235 -58 -104 -21 -260 -39 -260 -31 0 4 10 19 23 34 21 27 33 30 149 47 113
17 437 86 447 96 13 12 22 1 19 -23z m3395 -67 c82 -14 161 -26 175 -26 19 0
34 -10 50 -33 l22 -32 -29 -3 c-35 -4 -244 30 -346 56 -64 17 -70 20 -73 46
-3 26 -1 28 25 23 15 -2 95 -17 176 -31z"/>
<path d="M3043 4271 c-154 -53 -274 -194 -309 -364 -59 -283 197 -516 498
-454 43 8 101 27 130 42 230 115 274 408 97 643 -96 126 -273 183 -416 133z
m15 -228 c-38 -82 -71 -150 -73 -152 -2 -2 -20 7 -40 19 -38 24 -34 40 11 40
26 0 39 27 23 46 -6 7 -35 14 -66 16 l-55 3 31 41 c39 55 87 90 152 114 95 34
95 35 17 -127z m249 121 c40 -23 123 -114 123 -135 0 -5 -37 -9 -83 -9 l-84 0
-26 78 c-15 42 -27 80 -27 85 0 16 56 6 97 -19z m-127 -136 c0 -14 -8 -18 -35
-18 l-35 0 23 46 22 46 12 -29 c7 -15 12 -36 13 -45z m175 -103 c-34 -28 -45
-28 -56 3 -8 21 -6 22 39 22 l47 -1 -30 -24z m-123 -30 l17 -45 -44 -30 c-41
-28 -45 -29 -72 -15 -56 29 -96 8 -66 -35 16 -22 15 -24 -10 -44 -15 -12 -45
-31 -66 -44 l-40 -22 41 97 c72 174 80 183 168 183 l56 0 16 -45z m-288 -66
c9 -8 -53 -169 -66 -169 -4 0 -20 18 -35 41 -29 43 -41 120 -29 184 l7 35 57
-41 c31 -23 61 -45 66 -50z m542 -23 c-6 -50 -50 -156 -66 -156 -6 0 -45 82
-76 165 -4 9 20 30 63 59 l68 46 9 -32 c4 -18 5 -55 2 -82z m-188 -76 c12 -27
19 -50 17 -50 -3 0 -25 14 -50 32 l-46 32 23 18 c13 10 26 18 29 18 4 0 16
-22 27 -50z m-52 -95 l88 -64 -40 -17 c-65 -28 -152 -30 -230 -5 -105 32 -106
33 -28 79 38 22 78 47 89 56 11 8 23 16 26 16 4 0 46 -29 95 -65z"/>
<path d="M3868 4243 c-10 -2 -18 -13 -18 -23 0 -21 14 -24 230 -60 69 -12 175
-34 235 -51 126 -33 153 -35 162 -12 16 41 -82 77 -312 116 -160 27 -269 38
-297 30z"/>
<path d="M942 4219 c-24 -4 -59 -18 -77 -29 -58 -36 -133 -127 -176 -215 -71
-142 -66 -271 14 -362 40 -45 87 -68 171 -82 108 -19 123 -30 137 -103 8 -41
21 -71 37 -86 22 -22 29 -24 80 -18 32 4 105 11 164 14 78 5 112 11 123 23 21
21 65 190 65 251 0 26 -7 77 -16 115 -9 37 -18 112 -20 167 -3 83 -7 105 -29
141 -48 82 -162 153 -290 180 -77 16 -118 17 -183 4z m229 -88 c75 -29 137
-74 145 -108 5 -19 1 -38 -14 -64 -41 -71 -25 -150 42 -206 35 -29 76 -99 76
-131 0 -10 -9 -54 -21 -98 -31 -119 -61 -137 -73 -45 -7 52 -23 75 -45 62 -10
-6 -11 -22 -6 -58 5 -39 3 -52 -10 -63 -25 -21 -49 0 -57 50 -15 86 -48 78
-48 -11 0 -62 -3 -65 -47 -53 -16 4 -26 18 -33 44 -24 90 -67 121 -213 154
-75 17 -104 35 -138 85 -20 29 -24 47 -24 110 0 66 4 85 33 143 33 68 116 169
156 190 62 33 187 33 277 -1z"/>
<path d="M993 3928 c-56 -27 -64 -122 -16 -174 20 -22 30 -25 59 -21 44 7 35
-8 -14 -23 -49 -16 -58 -26 -42 -45 31 -37 121 -2 157 61 16 27 23 56 23 93 0
47 -4 57 -34 87 -27 27 -42 34 -72 33 -22 0 -49 -5 -61 -11z"/>
<path d="M1200 3774 c-14 -36 -13 -141 2 -150 6 -4 19 3 30 16 l18 22 19 -23
c18 -22 21 -23 35 -9 15 15 15 20 0 65 -33 98 -83 136 -104 79z"/>
<path d="M1721 4211 c-25 -25 -17 -59 15 -67 51 -13 72 44 27 73 -19 13 -24
12 -42 -6z"/>
<path d="M1928 4204 c-5 -4 -8 -15 -8 -25 0 -21 6 -23 131 -38 54 -6 124 -24
184 -46 101 -38 125 -39 125 -5 0 48 -170 109 -325 117 -55 3 -103 2 -107 -3z"/>
<path d="M2535 4200 c-28 -45 -26 -2003 2 -2031 6 -6 18 -9 26 -6 12 5 16 91
22 564 8 569 2 1434 -10 1466 -8 19 -30 23 -40 7z"/>
<path d="M3717 4023 c-31 -5 -46 -28 -29 -45 5 -5 81 -16 169 -24 191 -16 194
-17 416 -61 189 -38 212 -37 205 11 -3 18 -18 25 -93 43 -209 52 -572 93 -668
76z"/>
<path d="M1720 3991 c-16 -31 4 -63 37 -59 34 4 52 32 37 56 -16 26 -60 28
-74 3z"/>
<path d="M1938 3983 c-19 -3 -28 -10 -28 -23 0 -20 4 -22 152 -45 53 -8 133
-26 178 -41 93 -29 113 -27 108 13 -3 25 -11 30 -92 55 -126 39 -237 53 -318
41z"/>
<path d="M1720 3761 c-16 -31 4 -63 37 -59 34 4 52 32 37 56 -16 26 -60 28
-74 3z"/>
<path d="M3683 3768 c-10 -12 -10 -18 0 -31 9 -12 54 -19 207 -32 187 -15 395
-43 489 -64 52 -11 81 -1 81 30 0 25 -23 34 -140 54 -205 34 -311 46 -465 52
-134 5 -162 4 -172 -9z"/>
<path d="M1941 3762 c-14 -4 -26 -12 -28 -18 -7 -22 24 -33 127 -44 58 -6 142
-20 188 -32 78 -19 85 -20 100 -4 30 29 3 49 -99 73 -101 24 -249 37 -288 25z"/>
<path d="M1736 3547 c-38 -27 2 -95 42 -71 21 14 28 50 12 70 -15 17 -31 18
-54 1z"/>
<path d="M1917 3513 c-13 -13 -7 -42 11 -47 9 -3 62 -12 117 -21 55 -9 128
-22 163 -30 83 -20 118 -19 126 1 14 37 -19 52 -187 84 -106 20 -217 26 -230
13z"/>
<path d="M3020 3195 c0 -26 3 -27 115 -40 28 -3 129 -27 225 -52 124 -33 196
-47 245 -47 68 -1 70 0 70 24 0 22 -6 26 -45 33 -101 19 -231 48 -335 76 -79
22 -133 30 -192 31 -82 0 -83 0 -83 -25z"/>
<path d="M4091 3047 c-62 -93 -145 -249 -161 -303 -11 -37 -9 -49 25 -150 48
-139 109 -280 131 -305 9 -10 23 -19 30 -19 24 0 120 169 178 314 l36 88 -14
67 c-13 60 -40 140 -109 316 -34 87 -52 86 -116 -8z m58 -179 c7 -51 14 -102
16 -113 7 -34 -8 -47 -48 -40 -28 6 -37 3 -45 -11 -14 -26 2 -51 38 -59 16 -4
32 -11 36 -16 7 -11 -48 -219 -57 -219 -7 0 -60 157 -83 247 l-16 63 51 102
c60 120 78 149 89 143 4 -2 12 -46 19 -97z"/>
<path d="M1350 3084 c-14 -2 -59 -9 -100 -15 -86 -12 -194 -44 -209 -63 -8 -9
-7 -17 2 -29 11 -15 22 -14 137 9 97 20 158 26 272 27 95 1 151 6 158 13 20
20 7 48 -25 55 -32 7 -193 9 -235 3z"/>
<path d="M2872 3021 c-42 -11 -55 -23 -50 -47 3 -17 15 -19 121 -20 138 -2
206 -13 382 -60 161 -44 341 -58 365 -29 28 34 1 49 -121 66 -63 9 -186 34
-274 54 -167 40 -348 55 -423 36z"/>
<path d="M1990 2957 c-55 -17 -142 -112 -163 -176 -34 -107 -11 -228 54 -288
59 -54 181 -84 259 -63 58 16 140 94 140 135 0 30 -7 30 -96 5 -81 -23 -154
39 -154 130 0 55 29 107 66 116 14 4 54 3 87 0 113 -13 112 -14 115 14 11 95
-171 170 -308 127z"/>
<path d="M1290 2863 c-82 -13 -190 -40 -299 -75 -176 -57 -211 -73 -211 -98 0
-32 56 -26 204 24 223 75 269 81 629 86 5 0 7 12 5 27 -2 19 -10 29 -28 34
-26 7 -257 9 -300 2z"/>
<path d="M2980 2779 c-109 -16 -172 -51 -143 -80 9 -9 35 -8 110 5 118 19 180
13 413 -39 85 -19 189 -36 230 -37 l75 -3 0 30 c0 28 -3 30 -50 38 -27 5 -138
26 -245 47 -217 43 -309 52 -390 39z"/>
<path d="M1410 2639 c-124 -13 -230 -36 -363 -80 -65 -22 -146 -46 -179 -54
-68 -15 -84 -26 -75 -49 10 -27 88 -19 207 20 167 54 310 83 465 94 77 6 146
13 153 15 17 6 15 52 -4 59 -20 8 -96 6 -204 -5z"/>
<path d="M2930 2534 c-55 -15 -100 -38 -100 -52 0 -4 4 -13 9 -21 8 -12 18
-12 73 0 90 20 234 16 361 -9 124 -25 190 -28 206 -9 25 32 -10 45 -192 77
-196 33 -274 36 -357 14z"/>
<path d="M1566 2387 c-38 -27 2 -95 42 -71 24 16 28 55 6 71 -10 7 -21 13 -24
13 -3 0 -14 -6 -24 -13z"/>
<path d="M1259 2369 c-21 -4 -98 -31 -172 -58 -74 -28 -162 -55 -196 -60 -77
-12 -84 -17 -70 -43 10 -18 18 -20 87 -16 62 3 100 13 196 52 78 31 146 51
200 58 44 6 91 14 104 19 25 10 30 44 6 53 -22 8 -112 6 -155 -5z"/>
</g>
</svg>
