<?xml version="1.0" standalone="no"?>
<!DOCTYPE svg PUBLIC "-//W3C//DTD SVG 20010904//EN"
 "http://www.w3.org/TR/2001/REC-SVG-20010904/DTD/svg10.dtd">
<svg version="1.0" xmlns="http://www.w3.org/2000/svg"
 width="512.000000pt" height="512.000000pt" viewBox="0 0 512.000000 512.000000"
 preserveAspectRatio="xMidYMid meet">

<g transform="translate(0.000000,512.000000) scale(0.100000,-0.100000)"
fill="#000000" stroke="none">
<path d="M4600 5013 c-6 -10 -32 -67 -58 -128 -96 -224 -262 -462 -461 -663
-62 -63 -189 -171 -306 -261 -261 -201 -360 -302 -499 -506 -145 -213 -280
-394 -447 -600 -160 -197 -176 -215 -182 -215 -2 0 -10 19 -17 43 -17 57 -44
108 -68 130 -27 25 -58 9 -67 -35 -4 -18 -12 -44 -16 -57 -9 -23 -10 -23 -40
18 -51 72 -161 128 -194 101 -19 -16 -19 -44 0 -60 8 -7 15 -25 15 -41 l0 -28
-37 25 c-43 29 -70 37 -109 32 -39 -4 -42 -35 -10 -107 32 -73 72 -211 81
-282 6 -52 5 -58 -19 -82 -14 -14 -28 -37 -32 -51 -5 -23 -11 -26 -50 -26 -73
0 -232 -20 -334 -42 -275 -58 -495 -159 -732 -334 -219 -163 -387 -359 -467
-548 -20 -44 -20 -46 -1 -68 16 -20 22 -21 39 -10 11 6 23 12 25 12 3 0 -14
-30 -36 -67 -54 -88 -128 -242 -128 -264 0 -16 27 -39 46 -39 3 0 44 37 90 82
46 45 84 78 84 73 0 -5 -38 -46 -85 -92 -132 -131 -244 -317 -276 -460 -13
-57 -3 -83 30 -83 9 0 72 46 141 101 179 144 377 286 680 488 367 245 365 244
250 127 -216 -221 -494 -424 -758 -550 -83 -40 -104 -64 -82 -91 19 -23 46
-18 150 25 52 21 86 32 75 24 -32 -24 -213 -111 -305 -147 -62 -25 -86 -38
-88 -53 -5 -44 9 -49 165 -54 l148 -5 0 -30 c0 -23 5 -31 21 -33 41 -6 336
128 497 226 37 22 67 37 67 32 0 -10 -102 -153 -141 -198 -33 -37 -33 -36 -19
-63 17 -31 42 -23 140 51 89 67 95 69 102 49 7 -19 14 -21 50 -16 63 8 213 88
303 160 79 64 162 157 205 229 12 21 24 38 26 38 5 0 -12 -42 -36 -89 -26 -52
-25 -77 2 -92 20 -11 26 -7 61 32 69 77 196 279 267 424 108 218 152 368 237
793 10 49 22 82 29 82 23 0 77 54 96 96 l18 42 87 7 c89 8 311 1 349 -10 22
-7 54 16 54 39 0 23 -44 79 -87 112 l-43 32 51 11 c27 6 68 11 89 11 30 0 42
5 51 21 16 31 -13 55 -106 89 -44 15 -73 30 -67 34 18 11 14 56 -5 63 -9 4
-41 11 -70 17 l-53 11 142 180 c727 920 768 965 1073 1168 343 229 474 364
603 622 68 137 204 486 198 509 -4 16 -37 35 -138 79 -73 31 -139 57 -145 57
-7 0 -18 -8 -23 -17z m145 -117 l75 -35 -21 -53 c-233 -592 -307 -690 -734
-975 -154 -103 -250 -180 -349 -279 -117 -117 -189 -204 -580 -699 -196 -247
-362 -452 -368 -454 -7 -2 -9 4 -4 20 17 63 19 147 3 179 l-17 32 88 107 c186
225 376 479 543 726 99 148 196 242 434 425 113 87 248 202 311 265 217 215
391 465 497 713 14 34 31 62 36 62 6 0 44 -16 86 -34z m-2364 -2207 c47 -67
63 -205 37 -321 l-12 -53 -8 80 c-4 44 -19 112 -33 152 -25 70 -34 173 -16
173 5 0 19 -14 32 -31z m-93 -161 c11 -30 24 -83 28 -117 6 -60 6 -61 -18 -61
-24 0 -26 6 -42 84 -9 47 -28 118 -41 158 l-25 73 39 -41 c21 -22 47 -65 59
-96z m282 90 c7 -24 15 -77 17 -119 6 -74 5 -76 -27 -113 -18 -20 -41 -41 -50
-46 -16 -9 -17 -6 -9 28 5 20 9 78 9 129 0 66 5 103 17 128 9 19 20 35 23 35
4 0 13 -19 20 -42z m77 -280 c-14 -24 -41 -61 -60 -83 -28 -32 -37 -37 -49
-28 -12 10 -3 24 56 86 39 40 73 72 75 70 2 -1 -8 -21 -22 -45z m147 -39 c-27
-18 -76 -52 -108 -77 l-60 -46 42 53 c23 29 42 56 42 61 0 8 39 25 75 33 53
12 56 5 9 -24z m-406 -58 c129 -66 201 -195 157 -281 -31 -60 -47 -56 -104 19
-53 72 -140 157 -203 198 -33 22 -36 27 -26 49 21 46 101 53 176 15z m568 2
c13 -5 6 -10 -28 -24 -63 -25 -129 -8 -80 20 19 12 82 14 108 4z m-135 -108
c33 -9 83 -26 112 -39 l52 -23 -170 -5 c-93 -3 -172 -4 -175 -1 -9 9 82 83
102 83 11 0 47 -7 79 -15z m-634 -21 c31 -23 33 -28 20 -41 -8 -8 -65 -23
-128 -34 -439 -74 -856 -243 -1202 -488 -170 -119 -155 -112 -127 -71 76 108
258 267 445 390 244 159 591 265 879 269 71 1 83 -2 113 -25z m152 -140 c28
-30 51 -59 51 -64 0 -4 -44 -52 -97 -106 -177 -177 -376 -321 -607 -438 -117
-60 -226 -109 -226 -101 0 2 33 27 72 57 217 159 521 443 678 631 35 42 67 77
71 77 4 0 30 -25 58 -56z m-317 -108 c-226 -238 -474 -446 -747 -625 -77 -51
-143 -98 -147 -106 -11 -19 1 -45 24 -54 15 -5 -10 -26 -126 -104 -80 -54
-196 -134 -257 -178 -126 -90 -125 -86 11 55 314 327 696 664 1070 943 74 56
177 113 219 122 2 1 -19 -23 -47 -53z m-376 -52 c-332 -168 -659 -389 -908
-614 -42 -39 -79 -70 -83 -70 -9 0 89 142 147 212 140 168 285 271 555 393
124 57 393 154 423 155 8 0 -52 -34 -134 -76z m765 -81 c-84 -383 -329 -761
-693 -1068 -93 -78 -323 -255 -333 -255 -3 0 10 31 29 69 30 59 47 78 123 137
48 37 156 135 238 218 218 219 340 390 472 661 65 133 144 286 167 323 17 28
16 2 -3 -85z m-856 -62 c-6 -4 -77 -65 -160 -133 -177 -148 -348 -303 -537
-487 -133 -129 -138 -132 -123 -91 15 42 64 143 101 206 33 58 331 280 569
423 143 86 171 102 150 82z m603 -113 c-41 -58 -284 -301 -375 -376 -153 -126
-345 -256 -518 -352 l-60 -33 45 39 c158 137 297 278 393 397 20 24 66 56 135
92 111 59 264 158 347 224 28 22 51 40 53 40 2 1 -7 -13 -20 -31z m-124 -285
c-174 -272 -452 -548 -734 -729 -173 -111 -174 -110 -27 38 78 79 169 179 202
223 73 97 89 112 240 224 66 49 172 137 235 195 63 58 116 105 118 105 1 1
-14 -25 -34 -56z m151 -278 c-31 -65 -58 -115 -61 -113 -14 15 19 105 61 167
27 39 50 69 53 67 2 -3 -21 -57 -53 -121z m-1584 -207 c-9 -40 1 -64 31 -70
12 -2 -18 -31 -95 -90 -61 -47 -113 -85 -115 -83 -5 5 47 104 81 155 39 58 98
132 103 128 1 -2 -1 -20 -5 -40z m684 -82 c-73 -82 -223 -217 -327 -295 -60
-46 -75 -52 -154 -66 -47 -8 -104 -15 -125 -15 -38 0 -35 2 58 51 122 63 295
177 392 259 66 56 192 138 214 139 5 1 -22 -32 -58 -73z m565 -47 c-24 -44
-157 -172 -228 -220 -41 -27 -76 -48 -79 -46 -12 12 22 46 141 141 73 58 141
115 151 126 23 26 29 25 15 -1z"/>
</g>
</svg>
